<svg width="25" height="24" viewBox="0 0 25 24" fill="none" xmlns="http://www.w3.org/2000/svg">
<path d="M4.97112 5.62416L4.871 5.65946V5.76562V13.5C4.871 17.6211 8.21237 20.9625 12.3335 20.9625C16.4546 20.9625 19.796 17.6211 19.796 13.5V5.76562V5.65946L19.6959 5.62416L12.3834 3.04603L12.3335 3.02845L12.2836 3.04603L4.97112 5.62416ZM3.4835 4.60811L12.3335 1.65811L21.1835 4.60811V13.5C21.1835 18.3883 17.2217 22.35 12.3335 22.35C7.44524 22.35 3.4835 18.3883 3.4835 13.5V4.60811Z" fill="white" stroke="#5D55FF" stroke-width="0.3"/>
<path d="M9.096 11.241L9.09625 11.2412L11.5478 13.6928L11.6538 13.7988L11.7599 13.6928L16.3701 9.085L16.3702 9.08487C16.4302 9.02472 16.5015 8.977 16.5801 8.94444C16.6586 8.91188 16.7427 8.89512 16.8277 8.89512C16.9127 8.89512 16.9968 8.91188 17.0754 8.94444C17.1539 8.977 17.2252 9.02472 17.2852 9.08487L17.2853 9.08497L17.3509 9.1506L17.351 9.1507C17.4112 9.21074 17.4589 9.28205 17.4915 9.36055L17.63 9.30309L17.4915 9.36056C17.524 9.43906 17.5408 9.52322 17.5408 9.6082C17.5408 9.69319 17.524 9.77735 17.4915 9.85585L17.63 9.91332L17.4915 9.85585C17.4589 9.93436 17.4112 10.0057 17.351 10.0657L17.3509 10.0658L12.1127 15.3041L12.1126 15.3042C12.0525 15.3643 11.9812 15.4121 11.9027 15.4446C11.8242 15.4772 11.74 15.4939 11.655 15.4939C11.5701 15.4939 11.4859 15.4772 11.4074 15.4446C11.3289 15.4121 11.2576 15.3643 11.1975 15.3042L11.1974 15.3041L11.1482 15.2549L8.11541 12.2221L8.11517 12.2218C8.05061 12.1576 7.99938 12.0812 7.96442 11.997C7.92947 11.9129 7.91147 11.8227 7.91147 11.7316C7.91147 11.6405 7.92947 11.5504 7.96442 11.4662C7.99938 11.3821 8.05061 11.3057 8.11517 11.2415L8.11565 11.241C8.17992 11.1764 8.2563 11.1252 8.34042 11.0902C8.42454 11.0553 8.51473 11.0373 8.60583 11.0373C8.69692 11.0373 8.78712 11.0553 8.87123 11.0902C8.95535 11.1252 9.03174 11.1764 9.096 11.241Z" fill="white" stroke="white" stroke-width="0.3"/>
</svg>
