<svg width="22" height="22" viewBox="0 0 22 22" fill="none" xmlns="http://www.w3.org/2000/svg">
<g id="add">
<path id="Subtract" fill-rule="evenodd" clip-rule="evenodd" d="M0.249999 6.25001C0.249999 2.9363 2.93629 0.250008 6.25 0.250007L15.75 0.250007C19.0637 0.250007 21.75 2.9363 21.75 6.25001L21.75 15.75C21.75 19.0637 19.0637 21.75 15.75 21.75L6.25 21.75C2.93629 21.75 0.25 19.0637 0.25 15.75L0.249999 6.25001ZM11.0248 5.32353C11.3578 5.32353 11.6277 5.59349 11.6277 5.9265L11.6277 10.3687L16.2132 10.3687C16.5641 10.3687 16.8486 10.6532 16.8486 11.0041C16.8486 11.3551 16.5641 11.6396 16.2132 11.6396L11.6277 11.6395L11.6277 15.8281C11.6277 16.1611 11.3577 16.4311 11.0247 16.4311C10.6917 16.4311 10.4217 16.1611 10.4217 15.8281L10.4218 11.6395L5.77862 11.6395C5.42768 11.6395 5.1432 11.355 5.1432 11.0041C5.1432 10.6532 5.42769 10.3687 5.77862 10.3687L10.4218 10.3687L10.4218 5.92649C10.4218 5.59348 10.6917 5.32353 11.0248 5.32353Z" fill="black"/>
</g>
</svg>
