<svg width="20" height="22" viewBox="0 0 20 22" fill="none" xmlns="http://www.w3.org/2000/svg">
<g id="document">
<path id="Subtract" fill-rule="evenodd" clip-rule="evenodd" d="M6 0.25C2.82436 0.25 0.25 2.82436 0.25 6V16C0.25 19.1756 2.82436 21.75 6 21.75H14C17.1756 21.75 19.75 19.1756 19.75 16V6C19.75 2.82436 17.1756 0.25 14 0.25H6ZM6 6.44995C5.58579 6.44995 5.25 6.78574 5.25 7.19995C5.25 7.61416 5.58579 7.94995 6 7.94995H14C14.4142 7.94995 14.75 7.61416 14.75 7.19995C14.75 6.78574 14.4142 6.44995 14 6.44995H6ZM5.25 11.2C5.25 10.7857 5.58579 10.45 6 10.45H14C14.4142 10.45 14.75 10.7857 14.75 11.2C14.75 11.6142 14.4142 11.95 14 11.95H6C5.58579 11.95 5.25 11.6142 5.25 11.2ZM7 14.45C6.58579 14.45 6.25 14.7857 6.25 15.2C6.25 15.6142 6.58579 15.95 7 15.95H13C13.4142 15.95 13.75 15.6142 13.75 15.2C13.75 14.7857 13.4142 14.45 13 14.45H7Z" fill="black"/>
</g>
</svg>
