<svg width="22" height="22" viewBox="0 0 22 22" fill="none" xmlns="http://www.w3.org/2000/svg">
<g id="menu-strawberry">
<path id="Subtract" fill-rule="evenodd" clip-rule="evenodd" d="M6.25 0.25C2.93629 0.25 0.25 2.93629 0.25 6.25V15.75C0.25 19.0637 2.93629 21.75 6.25 21.75H15.75C19.0637 21.75 21.75 19.0637 21.75 15.75V6.25C21.75 2.93629 19.0637 0.25 15.75 0.25H6.25ZM3.84615 6C3.51691 6 3.25 6.33579 3.25 6.75C3.25 7.16421 3.51691 7.5 3.84615 7.5H18.1538C18.4831 7.5 18.75 7.16421 18.75 6.75C18.75 6.33579 18.4831 6 18.1538 6H3.84615ZM5.25 11.25C5.25 10.8358 5.58579 10.5 6 10.5H16C16.4142 10.5 16.75 10.8358 16.75 11.25C16.75 11.6642 16.4142 12 16 12H6C5.58579 12 5.25 11.6642 5.25 11.25ZM8 15C7.58579 15 7.25 15.3358 7.25 15.75C7.25 16.1642 7.58579 16.5 8 16.5H14C14.4142 16.5 14.75 16.1642 14.75 15.75C14.75 15.3358 14.4142 15 14 15H8Z" fill="black"/>
</g>
</svg>
