<svg width="22" height="22" viewBox="0 0 22 22" fill="none" xmlns="http://www.w3.org/2000/svg">
<g id="menu-fries">
<path id="Subtract" fill-rule="evenodd" clip-rule="evenodd" d="M6.25 0.25C2.93629 0.25 0.25 2.93629 0.25 6.25V15.75C0.25 19.0637 2.93629 21.75 6.25 21.75H15.75C19.0637 21.75 21.75 19.0637 21.75 15.75V6.25C21.75 2.93629 19.0637 0.25 15.75 0.25H6.25ZM3.84615 6C3.51691 6 3.25 6.33579 3.25 6.75C3.25 7.16421 3.51691 7.5 3.84615 7.5H18.1538C18.4831 7.5 18.75 7.16421 18.75 6.75C18.75 6.33579 18.4831 6 18.1538 6H3.84615ZM3.25 15.75C3.25 15.3358 3.51691 15 3.84615 15H18.1538C18.4831 15 18.75 15.3358 18.75 15.75C18.75 16.1642 18.4831 16.5 18.1538 16.5H3.84615C3.51691 16.5 3.25 16.1642 3.25 15.75ZM9 10.5C8.58579 10.5 8.25 10.8358 8.25 11.25C8.25 11.6642 8.58579 12 9 12L18 12C18.4142 12 18.75 11.6642 18.75 11.25C18.75 10.8358 18.4142 10.5 18 10.5L9 10.5Z" fill="black"/>
</g>
</svg>
